<?xml version="1.0" encoding="UTF-8"?>
<svg id="Layer_1" data-name="Layer 1" xmlns="http://www.w3.org/2000/svg" viewBox="0 0 30.75 46" width="8">
  <path d="m18.22,32.99h-5.43c-.29,0-.52-.23-.52-.52v-3.96c0-1.5.3-2.69.91-3.55s1.94-2.09,4-3.68c3.14-2.41,4.71-4.97,4.71-7.67,0-2.04-.61-3.65-1.84-4.85s-2.83-1.79-4.8-1.79c-4.43,0-7.09,2.97-7.99,8.92-.04.29-.31.5-.6.45L.44,15.22c-.27-.05-.47-.31-.44-.59C.52,10.16,2.24,6.62,5.18,4.03S11.87,0,16.11,0s7.42,1.15,10.13,3.45c2.87,2.44,4.56,6.13,4.5,9.91-.03,1.78-.4,3.47-1.14,5.08s-1.64,2.96-2.61,3.88-3.03,2.53-6.17,4.83c-.89.64-1.45,1.27-1.69,1.88-.22.55-.35,1.7-.39,3.44,0,.28-.24.53-.52.53Z" style="fill: #2dd4bf;"/>
  <rect x="12.26" y="37.7" width="7.8" height="8.3" rx=".52" ry=".52" style="fill: #2dd4bf;"/>
</svg>